<?xml version="1.0" encoding="UTF-8"?>
<svg viewBox="0 0 48 48" xmlns="http://www.w3.org/2000/svg" xmlns:xlink="http://www.w3.org/1999/xlink">
 <defs>
  <linearGradient id="a">
   <stop stop-color="#fff" stop-opacity=".8" offset="0"/>
   <stop stop-color="#fff" stop-opacity="0" offset="1"/>
  </linearGradient>
  <filter id="o" x="-.16" y="-.151" width="1.321" height="1.302" color-interpolation-filters="sRGB">
   <feGaussianBlur stdDeviation="0.5327"/>
  </filter>
  <linearGradient id="b">
   <stop stop-color="#eeeeec" offset="0"/>
   <stop stop-color="#d3d7cf" offset="1"/>
  </linearGradient>
  <radialGradient id="p" cx="23.903" cy="47.23" r="23.442" gradientTransform="matrix(1 0 0 .085246 0 43.205)" gradientUnits="userSpaceOnUse">
   <stop stop-color="#2e3436" offset="0"/>
   <stop stop-color="#2e3436" stop-opacity="0" offset="1"/>
  </radialGradient>
  <radialGradient id="q" cx="10.598" cy="14.524" r="18.475" gradientTransform="matrix(.20473 1.9462 -2.6137 .2851 46.782 -21.224)" gradientUnits="userSpaceOnUse">
   <stop stop-color="#e9b96e" offset="0"/>
   <stop stop-color="#c17d11" offset="1"/>
  </radialGradient>
  <linearGradient id="r" x2="0" y1="3.333" y2="46.667" gradientUnits="userSpaceOnUse" xlink:href="#a"/>
  <linearGradient id="s" x1="-7.177" x2="17.775" y1="-22.618" y2="18.539" gradientUnits="userSpaceOnUse">
   <stop stop-color="#fff" offset="0"/>
   <stop stop-color="#fff" stop-opacity="0" offset="1"/>
  </linearGradient>
  <radialGradient id="t" cx="24.293" cy="13.388" r="16.219" gradientTransform="matrix(.55337 -2.2948 -3.3955 -.8188 46.752 79.262)" gradientUnits="userSpaceOnUse" xlink:href="#b"/>
  <linearGradient id="u" x2="0" y1="43.531" y2="2.25" gradientTransform="matrix(.89624 0 0 -.89624 2.5073 45.323)" gradientUnits="userSpaceOnUse" xlink:href="#a"/>
  <radialGradient id="v" cx="34.13" cy="8.609" r="3.03" gradientTransform="matrix(1.7925 -1.8568e-7 -1.9429e-7 -1.8756 -28.077 53.569)" gradientUnits="userSpaceOnUse" xlink:href="#b"/>
  <linearGradient id="w" x1="34.13" x2="36.533" y1="8.75" y2="6.363" gradientTransform="matrix(.89624 0 0 -.89624 2.5073 45.263)" gradientUnits="userSpaceOnUse" xlink:href="#a"/>
  <linearGradient id="x" x1="55.936" x2="59.847" y1="14.994" y2="31.394" gradientUnits="userSpaceOnUse">
   <stop stop-color="#eeeeec" offset="0"/>
   <stop stop-color="#888a85" offset="1"/>
  </linearGradient>
  <linearGradient id="y" x2="0" y1="16.19" y2="26.631" gradientUnits="userSpaceOnUse" xlink:href="#a"/>
  <linearGradient id="z" x2="0" y1="16.38" y2="28.03" gradientUnits="userSpaceOnUse">
   <stop stop-color="#888a85" offset="0"/>
   <stop stop-color="#2e3436" offset="1"/>
  </linearGradient>
 </defs>
 <path transform="matrix(.91257 0 0 .96309 2.1867 .087414)" d="m47.345 47.231a23.442 1.9983 0 1 1 -46.884 0 23.442 1.9983 0 1 1 46.884 0z" fill="url(#p)" opacity=".8"/>
 <path transform="matrix(.95935 0 0 .9421 .97569 1.1223)" d="m7.4062 2.875c-0.75543 0-1.375 0.73122-1.375 1.5938v41.062c0 0.86253 0.61957 1.5937 1.375 1.5938h33.188c0.75543 0 1.375-0.73122 1.375-1.5938v-41.062c0-0.86253-0.61957-1.5938-1.375-1.5938h-33.188z" fill="url(#q)" fill-rule="evenodd" stroke="#683f00" stroke-width="1.013"/>
 <path transform="matrix(.95935 0 0 .9421 .97569 1.1223)" d="m7.4062 3.8438c-0.13552 0-0.40625 0.2225-0.40625 0.625v41.062c0 0.4025 0.27073 0.625 0.40625 0.625h33.188c0.13552 0 0.40625-0.2225 0.40625-0.625v-41.062c0-0.4025-0.27073-0.625-0.40625-0.625h-33.188z" fill="none" opacity=".8" stroke="url(#r)" stroke-width="1.013"/>
 <path transform="matrix(.96309 0 0 .96309 .88589 1.5607)" d="m7.4688 2.8438c-0.42948-1e-7 -0.875 0.46826-0.875 1.0625v25.312c9.4894-5.8678 22.866-12.26 34.812-17.312v-8c1e-6 -0.59424-0.44551-1.0625-0.875-1.0625h-33.062z" fill="url(#s)" fill-rule="evenodd" opacity=".6"/>
 <path d="m11.33 44.23c-1.5392 0-2.7727-1.2335-2.7727-2.7727v-33.301c0-1.5392 1.2335-2.7727 2.7727-2.7727h25.375c1.5392 0 2.7727 1.2335 2.7727 2.7727v29.772l-6.0496 6.3017h-22.098z" fill="#888a85"/>
 <path d="m11.33 43.306c-1.0384 0-1.8485-0.8101-1.8485-1.8485v-33.301c0-1.0384 0.8101-1.8485 1.8485-1.8485h25.375c1.0384 0 1.8485 0.8101 1.8485 1.8485v29.38l-5.5175 5.7695h-21.706z" fill="url(#t)"/>
 <g transform="matrix(.89624 0 0 .89624 2.5073 3.7105)">
  <g transform="translate(0 .99975)" fill="#fff">
   <rect x="11.5" y="12.539" width="21.968" height="3"/>
   <rect x="11.5" y="6.539" width="17.353" height="3"/>
   <rect x="11.5" y="18.539" width="19.726" height="3"/>
   <rect x="11.5" y="24.539" width="23.813" height="3"/>
   <rect x="11.5" y="30.539" width="22.363" height="3"/>
   <rect x="11.5" y="36.539" width="25" height="3"/>
  </g>
  <g fill="#888a85">
   <rect x="11.5" y="12.539" width="21.968" height="3"/>
   <rect x="11.5" y="6.539" width="17.353" height="3"/>
   <rect x="11.5" y="18.539" width="19.726" height="3"/>
   <rect x="11.5" y="24.539" width="23.813" height="3"/>
   <rect x="11.5" y="30.539" width="22.363" height="3"/>
   <rect x="11.5" y="36.539" width="25" height="3"/>
  </g>
 </g>
 <path d="m11.33 42.858c-0.80458 0-1.4004-0.59579-1.4004-1.4004v-33.301c0-0.80458 0.59579-1.4004 1.4004-1.4004h25.375c0.80458 0 1.4004 0.59579 1.4004 1.4004v29.24l-5.2654 5.4614h-21.51z" fill="none" opacity=".8" stroke="url(#u)" stroke-linecap="square" stroke-linejoin="round" stroke-width=".896"/>
 <path transform="matrix(.89624 0 0 -.81004 -37.719 56.965)" d="m77.133 16.968v6.875c0 0.95661 0.67666 1.5938 1.7188 1.5938h6.25v-1.8125l-6.9375-6.6562h-1.0312z" fill="#2e3436" filter="url(#o)" opacity=".16"/>
 <path d="m32.195 44.127v-5.6575c-2e-6 -1.0384 0.8101-1.8485 1.8485-1.8485h5.4334v1.2043l-6.0496 6.3017h-1.2323z" fill="#888a85"/>
 <path d="m33.091 43.106v-4.7333c-1e-6 -0.57422 0.37803-0.95225 0.95225-0.95225h4.4812l-5.4334 5.6855z" fill="url(#v)"/>
 <path d="m33.539 41.958v-3.585c-1e-6 -0.33816 0.16598-0.50413 0.50413-0.50413h3.4449l-3.949 4.0891z" fill="none" opacity=".8" stroke="url(#w)" stroke-linecap="square" stroke-width=".896"/>
 <g transform="matrix(.91801 0 0 .75249 1.9678 .36577)">
  <path d="m13.032 3.3127 1.9248 6.2395c0.36426 1.1075 1.256 1.5414 2.1989 1.5393h13.716c1.0079 0.0023 1.8396-0.47417 2.1989-1.5667l1.7368-5.6348c-0.17382-1.7578-19.147-2.3002-21.775-0.57722z" fill="#2e3436" opacity=".5"/>
  <path transform="matrix(.87958 0 0 .87958 -32.568 -14.229)" d="m53.969 16.406c-0.22723 0.03412-1.1696 0.32238-1.6875 0.96875-0.50804 0.63396-0.64023 0.97917-0.5625 1.8125 0.02228 0.23892 0.08782 0.48666 0.15625 0.65625 0.03422 0.0848 0.04294 0.15053 0.0625 0.1875l2.0938 6.25c0.41413 1.2591 1.428 1.7524 2.5 1.75h15.594c1.1459 0.0026 2.0914-0.53908 2.5-1.7812l2.1562-6.4062c0.096509-0.28742 0.21793-0.71988 0.15625-1.2188s-0.31603-0.99562-0.65625-1.375c-0.35803-0.39941-0.84309-0.70539-1.2812-0.8125s-0.82879-0.030866-0.71875-0.03125h-19.875c-0.01061-7.09e-4 -0.02063 5.67e-4 -0.03125 0-0.04246-0.0023-0.0825 0-0.125 0-0.05313 0-0.10321-0.0035-0.15625 0a1.4527 1.4527 0 0 0 -0.125 0z" fill="url(#z)"/>
  <path transform="matrix(.87958 0 0 .87958 -32.577 -14.229)" d="m54.188 17.844c-0.23626 0.03548-0.48754 0.07094-0.78125 0.4375-0.16906 0.21097-0.26899 0.57766-0.25 0.78125s0.08524 0.28762 0.09375 0.3125l2.1562 6.4062c0.0048 0.0146 0.02578 0.017 0.03125 0.03125 0.18291 0.47702 0.69614 0.78214 1.0938 0.78125h15.594c0.39761 8.88e-4 0.91084-0.30423 1.0938-0.78125h0.03125c0.0029-0.0081-0.0027-0.02309 0-0.03125l2.1562-6.4062c0.12581-0.3747 0.15674-0.73755-0.21875-1.1562-0.40265-0.44918-0.72951-0.37562-0.90625-0.375h-19.906c-0.0093 1.44e-4 -0.02192 1.44e-4 -0.03125 0 7e-3 -5.4e-5 -0.03824-5.4e-5 -0.03125 0a0.93763 0.93763 0 0 0 -0.125 0z" fill="url(#x)"/>
  <path transform="matrix(.87958 0 0 .87958 -32.584 -14.229)" d="m54.281 18.625c-0.09007 0.01353-0.19904 0.05365-0.28125 0.15625-0.04601 0.05741-0.03664 0.1297-0.03125 0.1875 0.0044 0.04669 0.0209 0.0957 0.03125 0.125v0.03125l2.1562 6.4062c0.0536 0.16297 0.2074 0.28162 0.375 0.28125h15.594c0.1676 3.75e-4 0.3214-0.11828 0.375-0.28125l2.1562-6.4375c0.04088-0.12174 0.03423-0.23589-0.0625-0.34375-0.10093-0.1126-0.21387-0.12534-0.3125-0.125h-19.906c-0.0125 1.93e-4 -0.01875 1.93e-4 -0.03125 0-0.0044 3.5e-5 -0.02681 3.5e-5 -0.03125 0a0.14577 0.14577 0 0 0 -0.03125 0z" fill="none" opacity=".8" stroke="url(#y)" stroke-width="1.41"/>
 </g>
</svg>
